<?xml version="1.0" encoding="utf-8"?>
<!-- Generator: Adobe Illustrator 23.0.3, SVG Export Plug-In . SVG Version: 6.00 Build 0)  -->
<svg version="1.1" id="Capa_1" xmlns="http://www.w3.org/2000/svg" xmlns:xlink="http://www.w3.org/1999/xlink" x="0px" y="0px"
	 viewBox="0 0 458.9 423.9" style="enable-background:new 0 0 458.9 423.9;" xml:space="preserve">
<style type="text/css">
	.st0{fill:#18BA60;}
	.st1{font-family:'ArialMT';}
	.st2{font-size:81px;}
</style>
<title>logo-orange</title>
<g>
	<path class="st0" d="M454.3,113.8L300.4,2.3c-4.1-3-9.7-3-13.8,0l-25.2,18.4L236,2.3c-4.1-3-9.7-3-13.8,0L197.5,20L172.9,2.3
		c-4.1-3-9.7-3-13.8,0L5,113.8c-2.8,2.1-4.5,5.3-4.5,8.8V310c0.1,6.2,5.2,11.1,11.4,11c0,0,0,0,0,0h435.6c6.5,0,11.4-4.8,11.4-11
		V122.6C458.9,119,457.2,115.7,454.3,113.8z M435.9,298.9h-41.6V122.3c0-3.5-1.7-6.8-4.5-8.8L280.4,34.2l13-9.4l142.5,103V298.9z
		 M331.3,298.9V122.3c0-3.5-1.7-6.8-4.5-8.8L216.6,34l12.5-8.9l142.3,103V299L331.3,298.9L331.3,298.9z M184.7,298.9h-37.6v-80.1
		h37.6V298.9z M207.7,298.9v-91.1c-0.1-6.2-5.2-11.1-11.4-11c0,0,0,0,0,0h-60.8c-6.5,0-11.4,4.8-11.4,11v91.1H23.5V128.1L166,25
		l142.5,103V299L207.7,298.9L207.7,298.9z"/>
	<text transform="matrix(0.9 0 0 1 0 401.9404)" class="st1 st2">Find Houses</text>
</g>
</svg>
